PathFileType	4	(X/Y/Z)	C:\Users\Basilio\Documents\Thesis Gigler\squatting_fais\c3dfiles\075\SLS_back_pre5\markers_experimental.trc
DataRate	CameraRate	NumFrames	NumMarkers	Units	OrigDataRate	OrigDataStartFrame	OrigNumFrames
200.000000	200.000000	4	61	mm	200.000000	322	1291
Frame#	Time	FHD			LBHD			C7			T10			CLAV			LSHO			LUUPA			LMUPA			LDUPA			LLEP			LMEP			LRAD			LUL			LRFIN			RSHO			RUPA1			RMUPA			RDUPA			RLEP			RMEP			RRAD			RUL			RUFIN			LASI			RASI			USACR			LSACR			RSACR			LTHI1			LTHI2			LTHI3			LTHI4			LLFC			LMFC			LTIB1			LTIB2			LTIB3			LTIB4			LLMAL			LMMAL			LHEE			LMT1			LMT2			LMT5			RTHI			RTHI2			RTHI3			RTHI4			RLFC			RMFC			RTIB1			RTIB2			RTIB3			RTIB4			RLMAL			RMMAL			RHEE			RMT1			RMT2			RMT5			RBHD			
		X1	Y1	Z1	X2	Y2	Z2	X3	Y3	Z3	X4	Y4	Z4	X5	Y5	Z5	X6	Y6	Z6	X7	Y7	Z7	X8	Y8	Z8	X9	Y9	Z9	X10	Y10	Z10	X11	Y11	Z11	X12	Y12	Z12	X13	Y13	Z13	X14	Y14	Z14	X15	Y15	Z15	X16	Y16	Z16	X17	Y17	Z17	X18	Y18	Z18	X19	Y19	Z19	X20	Y20	Z20	X21	Y21	Z21	X22	Y22	Z22	X23	Y23	Z23	X24	Y24	Z24	X25	Y25	Z25	X26	Y26	Z26	X27	Y27	Z27	X28	Y28	Z28	X29	Y29	Z29	X30	Y30	Z30	X31	Y31	Z31	X32	Y32	Z32	X33	Y33	Z33	X34	Y34	Z34	X35	Y35	Z35	X36	Y36	Z36	X37	Y37	Z37	X38	Y38	Z38	X39	Y39	Z39	X40	Y40	Z40	X41	Y41	Z41	X42	Y42	Z42	X43	Y43	Z43	X44	Y44	Z44	X45	Y45	Z45	X46	Y46	Z46	X47	Y47	Z47	X48	Y48	Z48	X49	Y49	Z49	X50	Y50	Z50	X51	Y51	Z51	X52	Y52	Z52	X53	Y53	Z53	X54	Y54	Z54	X55	Y55	Z55	X56	Y56	Z56	X57	Y57	Z57	X58	Y58	Z58	X59	Y59	Z59	X60	Y60	Z60	X61	Y61	Z61	

323	1.61	-228.3086395263672	1701.337280273438	-758.7949218750001	-366.0561218261719	1576.205444335938	-831.3167114257815	-402.9320068359376	1466.825073242188	-775.652038574219	-444.4762268066407	1149.829956054688	-791.0766601562502	-262.2528686523438	1401.80126953125	-769.4825439453127	-287.6693420410157	1455.124389648438	-906.731140136719	-148.3572082519532	1354.336059570313	-1007.709411621094	-115.9286041259766	1375.321166992188	-977.0880126953127	-81.27000427246095	1338.83203125	-1009.551330566406	1.251019597053528	1319.924682617188	-996.925231933594	-24.78029251098634	1250.256469726563	-950.4681396484377	nan	nan	nan	220.9714355468751	1333.382202148438	-860.2481689453127	221.3189239501954	1364.576171875	-755.6344604492189	-308.3517456054688	1432.527099609375	-628.6163940429689	-181.8835906982422	1334.787353515625	-512.6227416992189	-143.6850128173828	1353.716796875	-536.6320800781251	-115.0045623779297	1316.954223632813	-497.6029663085939	-43.96031188964844	1305.444091796875	-496.5442810058595	-42.10187149047852	1233.400634765625	-530.3063354492189	155.0330657958985	1346.589721679688	-686.9732666015626	184.2015686035157	1342.82958984375	-616.2975463867189	228.9393463134766	1381.567626953125	-719.2810668945314	-309.0536804199219	968.3386230468752	-934.0232543945315	-300.7815856933594	962.1616821289065	-681.1312866210939	-453.4261779785157	1052.140747070313	-801.7864990234377	-463.928192138672	1023.53759765625	-831.109558105469	-462.3992309570314	1021.054382324219	-773.3670654296877	-326.8506164550782	741.7409057617189	-1022.320617675781	-282.2329101562501	669.6779174804689	-1029.046630859375	-240.8402252197266	677.8827514648439	-1003.203674316406	-301.6058959960938	612.1290283203126	-1031.965576171875	-308.3928222656251	522.2564086914064	-1026.104736328125	-289.7395019531251	486.1361083984376	-898.4756469726565	-375.1513366699219	413.9125366210939	-988.867126464844	-438.2961730957032	455.9899291992189	-1032.974243164063	-427.5323181152345	417.0867614746095	-1015.995849609375	-500.609832763672	390.9267578125001	-979.959411621094	-661.7308959960939	415.4154357910157	-987.808044433594	-627.9037475585939	390.5293579101564	-909.834655761719	-697.5087280273439	461.6288452148439	-939.2017211914065	-670.6271362304689	255.4292449951172	-909.7065429687502	-680.5021362304689	248.9262237548829	-956.363464355469	-720.1209716796876	282.1949768066407	-999.3203125000002	-349.7566223144532	762.8662109375001	-623.8135375976564	-300.2754821777344	718.8601684570314	-627.4426879882814	-270.2045593261719	731.3018798828126	-636.6729125976564	-310.3435974121094	635.0576171875001	-642.2480468750001	-296.3357849121094	485.408416748047	-681.9266967773439	-263.2806701660157	492.8485107421876	-805.232604980469	-262.4731140136719	344.8678283691407	-766.5073242187501	-320.0039978027344	268.4731445312501	-716.3533325195314	-285.1583251953126	262.2081604003907	-750.2989501953126	-306.0922241210938	225.6815032958985	-791.0006103515627	-391.2268981933595	115.0432052612305	-764.6646728515626	-362.2924194335938	143.2527160644532	-843.4536743164065	-448.5618896484376	99.76060485839847	-823.1037597656252	-246.7820434570313	55.39049148559572	-836.565856933594	-245.6291961669922	54.95168685913087	-794.400085449219	-283.1760559082032	35.24681091308594	-741.8884887695314	nan	nan	nan	
324	1.615	-227.8219909667969	1700.677001953125	-758.4822998046876	-365.5013427734376	1575.636962890625	-830.8581542968752	-402.5457458496095	1466.3642578125	-775.1746826171877	-444.719451904297	1149.495239257813	-790.9963989257815	-262.0018005371094	1401.249389648438	-769.2288818359377	-287.2979736328126	1454.71484375	-906.3350219726565	-148.0064086914063	1354.0908203125	-1007.406311035156	-115.6946563720703	1374.994995117188	-976.7690429687502	-80.97852325439455	1338.37939453125	-1009.242492675781	1.40993869304657	1319.624145507813	-996.819030761719	-24.52279090881348	1249.944213867188	-950.228210449219	nan	nan	nan	221.1256408691407	1332.827026367188	-860.1050415039065	221.8139648437501	1363.769409179688	-755.4430541992189	-308.1050109863282	1431.78662109375	-628.3078613281251	-181.4827880859375	1334.196533203125	-512.4304809570314	-143.3604736328125	1353.22705078125	-536.4577026367189	-114.5378723144532	1316.582397460938	-497.3558654785157	-43.53552246093751	1305.09716796875	-496.404022216797	-41.60906982421876	1233.141235351563	-530.0584716796876	155.3853912353516	1345.714233398438	-686.6445922851564	184.6618804931641	1342.28271484375	-616.1947631835939	229.6070861816407	1380.906372070313	-719.2749633789064	-309.6227111816407	967.8396606445315	-934.0971679687502	-301.5306091308594	961.4672851562502	-681.3061523437501	-453.9434204101564	1051.86083984375	-801.8981933593752	-464.4896850585939	1023.2138671875	-831.0982055664065	-462.9600524902345	1020.770202636719	-773.4298095703127	-327.1586303710938	741.6511840820314	-1022.444885253906	-282.3245544433594	669.5622558593751	-1029.17578125	-241.0467834472657	677.9128417968751	-1003.3759765625	-301.5698547363282	611.9943237304689	-1032.160400390625	-308.3496093750001	522.2661743164064	-1026.255493164063	-289.5301208496094	485.9949340820314	-898.6733398437502	-374.9420166015626	413.8233642578126	-989.202331542969	-438.083465576172	455.9956665039064	-1033.177978515625	-427.2685546875001	416.973846435547	-1016.195983886719	-500.7432556152345	391.0328979492189	-980.704284667969	-661.4088134765626	415.5111694335939	-987.958435058594	-627.6964721679689	390.5657958984376	-909.9847412109377	-696.8884277343751	461.9396362304689	-939.4321289062502	-670.9893798828126	255.6967468261719	-909.4517211914065	-681.1212158203126	249.2382049560547	-956.279968261719	-720.6360473632814	282.5008239746094	-999.0538330078127	-350.3587951660157	762.4539184570314	-623.7103881835939	-300.6483154296876	718.5818481445314	-627.2790527343751	-270.7048645019532	731.0819091796876	-636.3895874023439	-310.5268554687501	634.7474975585939	-642.0924682617189	-295.8720397949219	485.2387084960939	-681.6907958984376	-261.5346069335938	492.5505981445314	-804.7942504882815	-262.2551879882813	344.6505126953126	-766.3883666992189	-319.8773498535157	268.3136291503907	-716.2150878906251	-285.0755310058594	262.1011657714844	-750.1994018554689	-305.9588623046876	225.5564727783204	-790.9042968750002	-391.2199707031251	115.0518188476563	-764.5938720703126	-362.2019653320313	143.342041015625	-843.4531250000002	-448.5677185058595	99.81282806396487	-823.050964355469	-246.7133026123047	55.42638397216798	-836.5347900390627	-245.6285705566407	54.96862792968751	-794.428894042969	-283.1782531738282	35.22979736328126	-741.8399658203126	nan	nan	nan	
325	1.62	-227.2645721435547	1700.013061523438	-758.0933227539064	-364.9244384765626	1575.381225585938	-830.6079101562502	-402.240692138672	1465.903930664063	-774.7954101562502	-444.9640502929689	1149.130126953125	-790.919860839844	-261.7256469726563	1400.576171875	-768.8679809570315	-286.9455261230469	1454.266723632813	-905.8589477539065	-147.529052734375	1353.83203125	-1007.065795898438	-115.7452545166016	1374.799072265625	-976.2000122070315	-80.60313415527345	1338.022094726563	-1008.884643554688	1.643330931663514	1319.2373046875	-996.563171386719	-24.29332160949708	1249.534790039063	-950.1636352539065	nan	nan	nan	221.2598266601563	1332.166381835938	-859.9749755859377	222.336410522461	1363.014038085938	-755.2393798828126	-307.8555297851563	1431.056762695313	-628.0922241210939	-181.0718841552735	1333.97802734375	-511.9732360839845	-143.1243743896485	1352.740478515625	-536.3256835937501	-114.1880340576172	1316.199340820313	-497.188446044922	-43.17769622802735	1304.818725585938	-496.2814331054689	-41.15439224243165	1232.591796875	-529.7178955078126	155.9272155761719	1344.744262695313	-686.5375976562501	184.9723358154297	1341.729614257813	-616.1356201171876	229.9699401855469	1379.950317382813	-719.1699218750001	-310.2030334472657	967.3132324218752	-934.0802001953127	-302.2267456054688	960.9266357421877	-681.3125610351564	-454.5781250000001	1051.516357421875	-801.9244384765627	-465.0899658203126	1022.873779296875	-831.1209106445315	-463.6035156250001	1020.378173828125	-773.514343261719	-327.5047302246094	741.4216308593751	-1022.6259765625	-282.3963623046876	669.4217529296876	-1029.31005859375	-241.2431182861329	677.9223022460939	-1003.511596679688	-301.4768371582032	611.8895874023439	-1032.3720703125	-308.2940673828126	522.1667480468751	-1026.425903320313	-289.2149963378907	485.8208618164064	-898.9584960937502	-374.7422180175782	413.7696838378907	-989.4011840820315	-437.8202514648439	455.9773254394532	-1033.274536132813	-427.1282653808595	416.8760375976564	-1016.406982421875	-500.5170898437501	391.0220336914064	-981.1085205078127	-661.1605224609376	415.6288452148439	-988.140075683594	-627.3658447265626	390.7972106933595	-910.1036376953127	-696.2694702148439	462.2249145507814	-939.6257324218752	-672.8331909179689	255.8890228271485	-907.6657714843752	-681.7778320312501	249.0046691894532	-955.7981567382815	-720.9346923828126	282.7247619628907	-998.8186645507815	-350.8561401367188	762.1279296875001	-623.5552368164064	-301.1278686523438	718.2672119140626	-627.1308593750001	-271.1935424804688	730.9183349609376	-636.2046508789064	-310.7139587402344	634.3693847656251	-641.8587036132814	-295.5141601562501	485.0510253906251	-681.4983520507814	-261.1904602050782	492.5315551757814	-804.4022216796877	-261.9069824218751	344.4569702148438	-766.1881103515626	-319.6860961914063	268.1896667480469	-716.0872192382814	-284.9378356933594	261.9345092773438	-750.0383300781251	-305.8281250000001	225.4620666503907	-790.7048950195315	-391.1771240234376	115.0167007446289	-764.5000000000001	-362.1320800781251	143.3631134033203	-843.2762451171877	-448.5860595703126	99.81502532958987	-823.0216064453127	-246.727279663086	55.44939422607423	-836.5367431640627	-245.5570831298829	54.95301437377931	-794.4080810546877	-283.1840515136719	35.22237396240235	-741.8494873046876	nan	nan	nan	
326	1.625	-226.5330963134766	1699.259765625	-757.5885620117189	-364.4395141601563	1574.824829101563	-830.1516723632815	-401.9461669921876	1465.443725585938	-774.4431762695315	-445.223602294922	1148.766723632813	-790.8723754882815	-261.0140380859376	1399.76953125	-768.2368164062502	-286.5822448730469	1453.76318359375	-905.4061279296877	-147.1944122314453	1353.562744140625	-1006.798217773438	-115.1758499145508	1374.310913085938	-976.1115722656252	-80.21958160400392	1337.716186523438	-1008.630126953125	2.076698541641236	1318.801025390625	-996.3913574218752	-24.04910278320313	1248.964477539063	-950.0335083007815	nan	nan	nan	221.7351074218751	1331.545532226563	-859.847839355469	222.7563629150391	1362.14111328125	-755.0746459960939	-307.5719604492188	1430.389526367188	-627.7457885742189	-180.6800079345703	1333.399536132813	-511.8877563476564	-142.7103729248047	1352.29443359375	-536.0773925781251	-113.8331146240235	1315.890869140625	-497.0312500000001	-42.84703063964844	1304.375366210938	-496.2239685058595	-40.96860122680665	1232.070190429688	-529.4829101562501	156.1334075927735	1344.307861328125	-686.3868408203126	185.3278045654297	1341.14794921875	-616.0456542968751	230.3927154541016	1378.95947265625	-719.2459716796876	-310.7877807617188	966.7631835937502	-934.0734863281252	-302.9067077636719	960.2269287109377	-681.4382324218751	-455.0433349609376	1051.201171875	-801.9421386718752	-465.6485900878907	1022.547729492188	-831.171569824219	-464.3722534179689	1020.004455566406	-773.563659667969	-327.7031250000001	741.2553710937501	-1022.779479980469	-282.4154968261719	669.3334350585939	-1029.566772460938	-241.3561248779297	677.9136352539064	-1003.592590332031	-301.5795898437501	611.7398681640626	-1032.611083984375	-308.0718078613282	522.1326904296876	-1026.619018554688	-288.8940734863282	485.7170715332032	-899.1790161132815	-374.5417175292969	413.7497558593751	-989.6474609375002	-437.5700683593751	455.9697570800782	-1033.4716796875	-426.8562011718751	416.7576293945314	-1016.599792480469	-500.0582580566407	390.9864196777345	-980.722839355469	-660.9970092773439	415.7999267578126	-988.2974243164065	-627.1541748046876	390.8985290527345	-910.2545166015627	-695.7025146484376	462.5474243164064	-939.8333129882815	-671.7232666015626	256.3039550781251	-909.1001586914065	-682.1250610351564	249.4953308105469	-955.7124633789065	-721.3924560546876	283.0910339355469	-998.7081298828127	-351.4703979492188	761.6746215820314	-623.4648437500001	-301.4756774902344	718.1187133789064	-626.7872924804689	-271.7409057617188	730.7946166992189	-636.0717773437501	-310.8714294433594	634.0717163085939	-641.6372070312501	-295.2744445800782	484.817596435547	-681.3249511718751	-260.6855468750001	492.3186340332032	-804.099304199219	-261.6316528320313	344.3070373535157	-765.9685668945314	-319.5271911621094	268.0844421386719	-715.8739013671876	-284.5682067871094	261.6709899902344	-749.7935180664064	-305.6242065429688	225.388656616211	-790.5706787109377	-391.1942749023439	115.0271072387696	-764.4501953125001	-362.0195007324219	143.3868103027344	-843.1361083984377	-448.595184326172	99.86267089843753	-822.9534912109377	-246.7464447021485	55.43732833862306	-836.5679321289065	-245.5745086669922	54.96556854248048	-794.3721313476565	-283.1311035156251	35.23684310913087	-741.8609008789064	nan	nan	nan	
